<mxfile host="Electron" modified="2023-06-01T18:02:23.506Z" agent="Mozilla/5.0 (Windows NT 10.0; Win64; x64) AppleWebKit/537.36 (KHTML, like Gecko) draw.io/21.2.8 Chrome/112.0.5615.165 Electron/24.2.0 Safari/537.36" etag="j1go8TludX1yY65mltvi" version="21.2.8" type="device">
  <diagram name="Pagina-1" id="AHyJ-n_UTIYTSlR7aWz2">
    <mxGraphModel dx="863" dy="505" grid="1" gridSize="10" guides="1" tooltips="1" connect="1" arrows="1" fold="1" page="1" pageScale="1" pageWidth="827" pageHeight="1169" math="0" shadow="0">
      <root>
        <mxCell id="0" />
        <mxCell id="1" parent="0" />
        <mxCell id="OjWA-4CbQiJTztgsCJEO-1" value="&lt;span style=&quot;font-size: 14px;&quot;&gt;Goal subottimo&lt;br&gt;g2&lt;br&gt;&lt;/span&gt;" style="ellipse;whiteSpace=wrap;html=1;aspect=fixed;fillColor=#0050ef;fontColor=#ffffff;strokeColor=#001DBC;" parent="1" vertex="1">
          <mxGeometry x="480" y="10" width="80" height="80" as="geometry" />
        </mxCell>
        <mxCell id="OjWA-4CbQiJTztgsCJEO-2" value="&lt;font style=&quot;font-size: 14px;&quot;&gt;Stato iniziale&lt;/font&gt;" style="ellipse;whiteSpace=wrap;html=1;aspect=fixed;" parent="1" vertex="1">
          <mxGeometry x="10" y="100" width="80" height="80" as="geometry" />
        </mxCell>
        <mxCell id="xgK_w56Nsq3HpBLHa8io-1" value="" style="curved=1;endArrow=classic;html=1;rounded=0;dashed=1;dashPattern=8 8;exitX=1;exitY=0.5;exitDx=0;exitDy=0;entryX=0;entryY=0.5;entryDx=0;entryDy=0;" parent="1" source="OjWA-4CbQiJTztgsCJEO-2" target="xgK_w56Nsq3HpBLHa8io-2" edge="1">
          <mxGeometry width="50" height="50" relative="1" as="geometry">
            <mxPoint x="340" y="220" as="sourcePoint" />
            <mxPoint x="350" y="140" as="targetPoint" />
            <Array as="points">
              <mxPoint x="130" y="100" />
              <mxPoint x="160" y="210" />
              <mxPoint x="200" y="90" />
              <mxPoint x="230" y="210" />
              <mxPoint x="270" y="80" />
              <mxPoint x="300" y="200" />
              <mxPoint x="310" y="100" />
              <mxPoint x="330" y="140" />
            </Array>
          </mxGeometry>
        </mxCell>
        <mxCell id="xgK_w56Nsq3HpBLHa8io-2" value="&lt;font style=&quot;font-size: 14px;&quot;&gt;s&lt;/font&gt;" style="ellipse;whiteSpace=wrap;html=1;aspect=fixed;" parent="1" vertex="1">
          <mxGeometry x="340" y="100" width="80" height="80" as="geometry" />
        </mxCell>
        <mxCell id="xgK_w56Nsq3HpBLHa8io-4" value="&lt;span style=&quot;font-size: 14px;&quot;&gt;Goal ottimo&lt;br&gt;g&lt;br&gt;&lt;/span&gt;" style="ellipse;whiteSpace=wrap;html=1;aspect=fixed;fillColor=#0050ef;fontColor=#ffffff;strokeColor=#001DBC;" parent="1" vertex="1">
          <mxGeometry x="570" y="340" width="80" height="80" as="geometry" />
        </mxCell>
        <mxCell id="xgK_w56Nsq3HpBLHa8io-5" value="" style="endArrow=classic;html=1;rounded=0;entryX=0;entryY=0.5;entryDx=0;entryDy=0;exitX=1;exitY=0;exitDx=0;exitDy=0;dashed=1;dashPattern=1 2;" parent="1" source="xgK_w56Nsq3HpBLHa8io-2" target="OjWA-4CbQiJTztgsCJEO-1" edge="1">
          <mxGeometry width="50" height="50" relative="1" as="geometry">
            <mxPoint x="370" y="180" as="sourcePoint" />
            <mxPoint x="420" y="130" as="targetPoint" />
          </mxGeometry>
        </mxCell>
        <mxCell id="xgK_w56Nsq3HpBLHa8io-7" value="" style="endArrow=classic;html=1;rounded=0;entryX=0;entryY=0;entryDx=0;entryDy=0;dashed=1;dashPattern=1 2;exitX=1;exitY=1;exitDx=0;exitDy=0;" parent="1" source="Jc4JO5RjTTsOYAzLhm5q-1" target="xgK_w56Nsq3HpBLHa8io-4" edge="1">
          <mxGeometry width="50" height="50" relative="1" as="geometry">
            <mxPoint x="510" y="280" as="sourcePoint" />
            <mxPoint x="520" y="190" as="targetPoint" />
          </mxGeometry>
        </mxCell>
        <mxCell id="xgK_w56Nsq3HpBLHa8io-9" value="h(n, t_1)" style="text;html=1;strokeColor=none;fillColor=none;align=center;verticalAlign=middle;whiteSpace=wrap;rounded=0;" parent="1" vertex="1">
          <mxGeometry x="384" y="40" width="60" height="30" as="geometry" />
        </mxCell>
        <mxCell id="xgK_w56Nsq3HpBLHa8io-11" value="h(n, t_k)" style="text;html=1;strokeColor=none;fillColor=none;align=center;verticalAlign=middle;whiteSpace=wrap;rounded=0;" parent="1" vertex="1">
          <mxGeometry x="50" y="370" width="60" height="30" as="geometry" />
        </mxCell>
        <mxCell id="Jc4JO5RjTTsOYAzLhm5q-1" value="&lt;font style=&quot;font-size: 14px;&quot;&gt;n&lt;/font&gt;" style="ellipse;whiteSpace=wrap;html=1;aspect=fixed;" vertex="1" parent="1">
          <mxGeometry x="444" y="220" width="80" height="80" as="geometry" />
        </mxCell>
      </root>
    </mxGraphModel>
  </diagram>
</mxfile>
